<?xml version="1.0" encoding="utf-8"?>
<!-- Generator: Adobe Illustrator 27.5.0, SVG Export Plug-In . SVG Version: 6.00 Build 0)  -->
<svg version="1.1" xmlns="http://www.w3.org/2000/svg" xmlns:xlink="http://www.w3.org/1999/xlink" x="0px" y="0px"
	 viewBox="0 0 500 500" style="enable-background:new 0 0 500 500;" xml:space="preserve">
<g id="BACKGROUND">
</g>
<g id="OBJECTS">
	<g>
		<circle style="fill:#399A9D;" cx="248.96" cy="279.435" r="143.7"/>
		<g>
			<path style="fill:#732A3A;" d="M230.346,305.731l-4.087,21.793v20.933l-20.83,67.933c0,0-55.414-13.76-85.14-72.956l71.789-16.29
				l11.063-1.148l23.892-19.083L230.346,305.731z"/>
			<path style="fill:#732A3A;" d="M211.13,417.374l83.582-107.324l18.115-17.778l33.381,15.049h43.743
				c0,0-1.861,65.55-84.413,104.242C305.538,411.562,265.694,433.883,211.13,417.374z"/>
			<polygon style="fill:#FFFFFF;" points="230.346,307.32 208.564,414.999 214.014,414.999 288.052,318.627 312.864,290.682 
				310.201,279.435 			"/>
			<path style="fill:#732A3A;" d="M78.293,209.518c0,0,24.718-0.625,31.688,0c6.969,0.625,193.334-38.111,193.334-38.111
				l116.106-22.405l-1.643-4.908l-116.251,9.41l-6.814-28.717l-24.455-0.027L227.68,81.51c0,0-26.405,44.087-28.168,50.962
				c-1.763,6.876-6.075,35.95-6.075,35.95L86.833,205.776L78.293,209.518z"/>
			<polygon style="fill:#DD805C;" points="186.248,195.704 168.446,230.489 168.446,232.933 190.46,232.933 191.294,277.285 
				201.569,283.595 229.069,277.103 227.033,306.913 308.781,279.435 301.526,234.432 309.73,229.46 311.516,201.026 
				303.084,193.185 290.643,196.697 288.052,173.74 			"/>
			<path style="fill:#232836;" d="M187.742,174.089c0,0,7.814-38.565,16.384-57.722s23.189-39.825,24.702-39.825
				s44.362,45.371,45.875,45.623c1.512,0.252,19.661-0.756,20.417,0.504c0.756,1.26,9.578,38.061,9.578,38.061l-5.545,2.521
				c0,0-6.302-37.053-7.058-36.801c-0.756,0.252-18.4,0.756-19.661,0.252c-1.26-0.504-43.858-43.354-43.858-43.354
				s-21.173,25.962-23.694,46.127s-8.57,49.656-8.57,49.656L187.742,174.089z"/>
			<path style="fill:#232836;" d="M197.573,152.916c0,0,32.264,3.529,54.193,0c21.929-3.529,46.631-8.822,46.631-8.822l3.13,18.077
				c0,0-67.405,12.926-75.975,15.446s-29.239,1.512-29.239,1.512l-8.57-2.773l0.465-4.492L197.573,152.916z"/>
			<g>
				<path style="fill:#232836;" d="M91.348,211.943c-6.597,0-11.692-0.639-13.054-2.425c-0.711-0.933-0.768-2.117-0.15-3.166
					c0.817-1.39,2.518-4.281,59.473-21.574c27.801-8.441,55.543-16.277,55.821-16.355l1.086,3.85
					c-38.928,10.986-100.609,29.43-111.539,35.251c9.875,1.938,55.519-2.241,95.192-12.955
					c30.383-8.206,123.153-26.301,184.541-38.275c22.282-4.347,42.251-8.242,51.331-10.14c-13.86,0.764-71.52,5.894-110.864,9.525
					l-0.367-3.983c26.195-2.417,111.922-10.261,114.914-9.547c1.817,0.426,3.759,1.091,4.378,2.792
					c0.255,0.702,0.358,1.808-0.601,3.087c-0.754,1.004-0.769,1.024-58.024,12.192c-61.333,11.963-154.019,30.042-184.264,38.211
					c-19.732,5.329-43.378,9.705-64.876,12.005C106.732,211.249,98.224,211.943,91.348,211.943z"/>
			</g>
			<path style="fill:#232836;" d="M205.568,191.172l1.687,3.206c0,0,13.837,6.581,17.718,5.4c3.881-1.181,13.837-9.281,14.512-9.787
				s6.735-8.1,6.735-8.1L205.568,191.172z"/>
			<polygon style="fill:#232836;" points="236.785,195.053 250.959,180.879 257.371,180.879 			"/>
			<path style="fill:#232836;" d="M209.787,201.128c0,0,15.355,3.881,17.549,3.544s16.199-4.752,16.199-4.752s11.474-0.702,10.968,0
				c-0.506,0.702-9.612,1.734-9.868,2.23s-16.118,9.809-17.299,9.793c-1.181-0.016-16.536-9.128-16.536-9.128L209.787,201.128z"/>
			<path style="fill:#232836;" d="M187.742,195.053l-19.297,35.435l2.531,1.181l34.592-7.256l-9.112-11.052l-2.869,1.097
				l-3.037,3.206c0,0,2.869-6.581,3.544-7.087c0.675-0.506,3.712-1.687,3.712-1.687l9.787,16.536c0,0-16.705,12.487-17.718,12.993
				c-1.012,0.506-23.455-6.075-23.455-6.075l-1.519-1.181l17.38-30.542l-1.097-2.714L187.742,195.053z"/>
			<path style="fill:#232836;" d="M261.771,178.291l5.84,6.466l-1.46,45.888h4.589c0,0,2.712-11.055,3.546-12.515
				c0.834-1.46,15.852-15.435,16.686-15.644c0.834-0.209,23.361-3.963,23.361-3.963s-0.834-5.215-1.251-6.257
				c-0.417-1.043-11.555-20.858-11.555-20.858L261.771,178.291z"/>
			<path style="fill:#232836;" d="M301.526,204.835l-2.099-0.987l-11.375,4.607c0,0-5.409,21.013-5.573,22.189
				c-0.165,1.176,0,3.151,0,3.151l5.573-10.037l8.413-15.303L301.526,204.835z"/>
			<path style="fill:#232836;" d="M304.698,198.38l1.131,1.228l3.901,4.239l-2.516,24.307c0,0-13.685,10.923-15.248,10.293
				c-1.563-0.63-15.406,2.243-15.406,2.243s13.574,7.313,15.406,7.052c1.832-0.261,6.533-2.351,6.533-2.351l2.089-6.945
				c0,0,9.141-8.204,9.141-8.987c0-0.784,3.134-25.613,3.134-25.613l-2.612-5.468H304.698z"/>
			<path style="fill:#232836;" d="M192.574,236.536v42.131l5.328,3.632c0,0,37.088-9.14,38.883-10.139
				c1.795-0.999,54.339-23.275,53.854-22.549c-0.484,0.726-51.332,26.393-52.543,26.877c-1.211,0.484-39.226,9.201-39.226,9.201
				l-9.443-6.254l-3.18-42.899H192.574z"/>
			<path style="fill:#232836;" d="M190.46,244.666l5.833,0.833c0,0,19.881,6.667,19.524,6.667s-25.358,1.19-25.358,1.19V244.666z"/>
			<path style="fill:#232836;" d="M190.46,265.38l7.857,4.524c0,0,10.578,9.231,10.238,9.531c-0.34,0.3-8.333,4.16-8.333,4.16
				l-3.81-1.071l-5.119-5.238L190.46,265.38z"/>
			<path style="fill:#232836;" d="M259.25,212.951c0,0-23.357,11.678-23.941,12.7s-4.963,8.144-4.963,8.144l0.73,31.585h2.19
				c0,0,1.314-26.153,2.482-28.051s10.837-13.348,11.331-14.265s14.693-8.946,14.693-8.946L259.25,212.951z"/>
			<polygon style="fill:#232836;" points="229.069,277.103 225.894,307.32 229.069,307.32 232.153,294.624 272.236,261.113 
				275.549,257.575 239.48,274.488 			"/>
			<polygon style="fill:#232836;" points="304.698,230.644 312.864,282.448 308.781,279.435 299.764,236.536 			"/>
			<polygon style="fill:#232836;" points="225.894,307.32 310.201,277.223 310.201,279.435 235.526,307.32 			"/>
			<polygon style="fill:#232836;" points="231.679,305.255 242.465,307.32 259.14,335.147 312.864,290.682 308.781,279.435 
				312.389,279.435 316.884,292.271 258.831,345.337 240.304,312.386 230.346,307.32 			"/>
			<polygon style="fill:#232836;" points="227.033,306.913 218.985,322.042 224.01,337.117 230.346,338.792 238.445,321.564 
				236.214,308.403 			"/>
			<polygon style="fill:#232836;" points="223.404,335.299 203.141,415.673 208.564,417.374 236.077,380.666 230.346,335.299 			"/>
			<polygon style="fill:#232836;" points="208.564,417.374 294.712,310.05 299.764,307.92 215.823,419.29 			"/>
			<polygon style="fill:#232836;" points="221.647,406.408 280.032,374.196 276.56,335.299 280.032,332.321 284.863,376.336 
				221.647,411.562 			"/>
			<polygon style="fill:#232836;" points="282.405,353.945 343.248,307.32 312.827,292.271 312.864,290.682 350.495,306.913 
				350.495,309.772 282.405,361.311 			"/>
			<polygon style="fill:#232836;" points="349.072,310.85 388.86,312.386 389.951,307.32 343.39,303.849 			"/>
			<polygon style="fill:#232836;" points="225.894,309.055 203.141,325.997 214.518,342.683 209.943,345.337 196,327.196 
				226.259,303.849 			"/>
			<polygon style="fill:#232836;" points="224.324,331.058 196,356.393 208.564,399.487 211.13,397.136 203.141,357.698 
				225.894,334.192 			"/>
			<polygon style="fill:#232836;" points="199.512,328.541 121.234,345.337 119.157,341.154 201.629,322.853 			"/>
		</g>
		<path style="fill:#FFFFFF;" d="M225.894,95.802c0,0-8.556,10.512-9.013,11.579c-0.457,1.066-7.77,39.46-7.77,39.46h5.028
			l5.18-38.85l7.313-7.922L225.894,95.802z"/>
		<polygon style="fill:#FFFFFF;" points="194.887,157.772 207.593,159.475 205.568,175.728 193.019,174.772 		"/>
		<polygon style="fill:#FFFFFF;" points="212.746,159.747 211.788,175.728 214.182,177.022 214.182,159.747 		"/>
		<polygon style="fill:#FFFFFF;" points="233.038,91.405 230.078,88.692 227.858,91.405 229.584,95.802 		"/>
		<polygon style="fill:#FFFFFF;" points="186.248,199.608 189.261,199.608 175.261,227.844 172.562,227.844 		"/>
		<polygon style="fill:#FFFFFF;" points="196,256.546 197.38,265.38 196,264.153 		"/>
		<polygon style="fill:#FFFFFF;" points="217.871,216.75 232.153,216.75 219.609,227.844 		"/>
		<polygon style="fill:#FFFFFF;" points="196,334.095 132.956,347.217 136.634,353.063 196.69,336.935 		"/>
		<polygon style="fill:#FFFFFF;" points="215.823,321.09 207.593,325.997 211.708,331.058 		"/>
		<polygon style="fill:#FFFFFF;" points="282.405,337.24 304.245,308.117 288.052,343.579 		"/>
		<polygon style="fill:#FFFFFF;" points="155.332,187.966 101.362,203.847 112.658,203.847 		"/>
	</g>
</g>
</svg>
